<?xml version="1.0" standalone="no"?>
<!DOCTYPE svg PUBLIC "-//W3C//DTD SVG 20010904//EN"
 "http://www.w3.org/TR/2001/REC-SVG-20010904/DTD/svg10.dtd">
<svg version="1.0" xmlns="http://www.w3.org/2000/svg"
 width="700.000000pt" height="700.000000pt" viewBox="0 0 700.000000 700.000000"
 preserveAspectRatio="xMidYMid meet">
<metadata>
Created by potrace 1.14, written by Peter Selinger 2001-2017
</metadata>
<g transform="translate(0.000000,700.000000) scale(0.100000,-0.100000)"
fill="#000000" stroke="none">
<path d="M5195 6798 c-88 -90 -184 -190 -213 -222 l-53 -58 42 -36 c23 -21 50
-44 59 -52 64 -56 182 -163 224 -203 l51 -48 -48 31 c-132 87 -364 206 -526
270 -217 85 -498 162 -676 184 -49 7 -80 11 -140 21 -53 9 -257 19 -375 19
-111 0 -339 -13 -350 -19 -3 -2 -34 -6 -70 -9 -36 -4 -74 -9 -85 -11 -11 -3
-31 -7 -45 -9 -190 -31 -500 -121 -647 -187 -24 -10 -45 -19 -48 -19 -13 0
-206 -95 -300 -148 -702 -392 -1227 -1025 -1484 -1789 -34 -99 -85 -294 -95
-357 -4 -21 -8 -41 -10 -45 -2 -3 -7 -28 -10 -56 -7 -52 -12 -89 -21 -140 -27
-157 -27 -680 0 -824 6 -35 17 -102 19 -124 10 -81 67 -310 112 -452 95 -297
256 -616 433 -860 79 -108 85 -118 96 -129 49 -54 87 -110 77 -114 -8 -2 4
-23 32 -56 48 -56 223 -229 296 -292 25 -22 47 -42 50 -45 13 -15 258 -193
277 -202 13 -6 23 -14 23 -19 0 -4 5 -8 11 -8 6 0 25 -10 42 -22 18 -13 41
-28 52 -34 11 -6 54 -30 95 -53 127 -71 221 -112 240 -106 16 5 59 -8 145 -46
96 -41 294 -104 425 -134 54 -13 165 -36 192 -40 18 -3 44 -8 58 -10 28 -6 82
-12 155 -20 28 -3 73 -7 100 -10 62 -7 398 -7 480 -1 307 25 646 101 915 205
127 50 288 126 409 194 102 58 271 164 281 176 3 4 18 15 33 24 32 21 29 18
157 123 132 108 268 240 376 364 21 25 45 52 53 60 40 41 196 260 261 365 124
199 264 499 317 677 9 32 21 52 33 55 10 3 20 15 23 26 2 12 17 69 32 127 29
114 30 118 39 176 4 22 8 46 11 54 4 16 11 58 20 135 4 28 8 61 11 75 22 131
21 592 -1 705 -2 11 -4 37 -4 58 -1 29 -5 37 -17 35 -12 -2 -18 6 -21 27 -15
120 -72 371 -112 490 -66 201 -91 262 -181 450 -213 443 -577 878 -983 1174
l-59 43 29 31 c66 73 174 186 263 273 l94 93 -24 28 c-31 34 -145 154 -281
296 l-104 108 -160 -163z"/>
</g>
</svg>
